HIERARCHY
ROOT Pelvis
{
	OFFSET 0.000000 0.000000 0.000000
	CHANNELS 6 Xposition Yposition Zposition Xrotation Yrotation Zrotation
	JOINT LeftUpLeg_virtual
	{
		OFFSET 0.000000 0.000000 0.000000
		CHANNELS 3 Xrotation Yrotation Zrotation
		JOINT LeftUpLeg
		{
			OFFSET 8.479700 -4.795502 -0.379100
			CHANNELS 3 Xrotation Yrotation Zrotation
			JOINT LeftLeg
			{
				OFFSET 0.024144 -32.555107 0.112900
				CHANNELS 3 Xrotation Yrotation Zrotation
				JOINT LeftFoot
				{
					OFFSET -0.024144 -32.638630 -3.012600
					CHANNELS 3 Xrotation Yrotation Zrotation
					JOINT LeftToeBase
					{
						OFFSET 0.970200 -13.225400 11.864200
						CHANNELS 3 Xrotation Yrotation Zrotation
						End Site
						{
							OFFSET 0 0 0
						}
					}
				}
			}
		}
	}
	JOINT RightUpLeg_virtual
	{
		OFFSET 0.000000 0.000000 0.000000
		CHANNELS 3 Xrotation Yrotation Zrotation
		JOINT RightUpLeg
		{
			OFFSET -8.479700 -4.795502 -0.379100
			CHANNELS 3 Xrotation Yrotation Zrotation
			JOINT RightLeg
			{
				OFFSET -0.023144 -32.555092 0.112900
				CHANNELS 3 Xrotation Yrotation Zrotation
				JOINT RightFoot
				{
					OFFSET 0.023144 -32.638641 -3.012700
					CHANNELS 3 Xrotation Yrotation Zrotation
					JOINT RightToeBase
					{
						OFFSET -0.970200 -13.225400 11.864200
						CHANNELS 3 Xrotation Yrotation Zrotation
						End Site
						{
							OFFSET 0 0 0
						}
					}
				}
			}
		}
	}
	JOINT Hips_virtual
	{
		OFFSET 0.000000 0.000000 0.000000
		CHANNELS 3 Xrotation Yrotation Zrotation
		JOINT Hips
		{
			OFFSET -0.000000 -0.000000 -0.000000
			CHANNELS 3 Xrotation Yrotation Zrotation
			JOINT Spine
			{
				OFFSET 0.000000 7.722000 1.166200
				CHANNELS 3 Xrotation Yrotation Zrotation
				JOINT Spine1
				{
					OFFSET 0.000000 12.024101 0.248800
					CHANNELS 3 Xrotation Yrotation Zrotation
					JOINT Spine2
					{
						OFFSET 0.000000 11.502998 -0.491200
						CHANNELS 3 Xrotation Yrotation Zrotation
						JOINT Neck_virtual
						{
							OFFSET 0.000000 0.000000 0.000000
							CHANNELS 3 Xrotation Yrotation Zrotation
							JOINT Neck
							{
								OFFSET 0.000000 18.430702 -3.123100
								CHANNELS 3 Xrotation Yrotation Zrotation
								JOINT Head
								{
									OFFSET 0.000000 9.051102 1.034000
									CHANNELS 3 Xrotation Yrotation Zrotation
									End Site
									{
										OFFSET 0 0 0
									}
								}
							}
						}
						JOINT LeftShoulder_virtual
						{
							OFFSET 0.000000 0.000000 0.000000
							CHANNELS 3 Xrotation Yrotation Zrotation
							JOINT LeftShoulder
							{
								OFFSET 6.197800 13.665199 -4.064700
								CHANNELS 3 Xrotation Yrotation Zrotation
								JOINT LeftArm
								{
									OFFSET 7.778100 -0.187103 -1.709300
									CHANNELS 3 Xrotation Yrotation Zrotation
									JOINT LeftForeArm
									{
										OFFSET 22.049376 0.000000 0.000000
										CHANNELS 3 Xrotation Yrotation Zrotation
										JOINT LeftHand
										{
											OFFSET 23.009392 0.000000 0.000000
											CHANNELS 3 Xrotation Yrotation Zrotation
											End Site
											{
												OFFSET 0 0 0
											}
										}
									}
								}
							}
						}
						JOINT RightShoulder_virtual
						{
							OFFSET 0.000000 0.000000 0.000000
							CHANNELS 3 Xrotation Yrotation Zrotation
							JOINT RightShoulder
							{
								OFFSET -6.197800 13.665199 -4.064700
								CHANNELS 3 Xrotation Yrotation Zrotation
								JOINT RightArm
								{
									OFFSET -7.778100 -0.187103 -1.709300
									CHANNELS 3 Xrotation Yrotation Zrotation
									JOINT RightForeArm
									{
										OFFSET -22.049376 0.000000 0.000000
										CHANNELS 3 Xrotation Yrotation Zrotation
										JOINT RightHand
										{
											OFFSET -23.009392 0.000000 0.000000
											CHANNELS 3 Xrotation Yrotation Zrotation
											End Site
											{
												OFFSET 0 0 0
											}
										}
									}
								}
							}
						}
					}
				}
			}
		}
	}
}
MOTION
Frames: 7
Frame Time: 0.03333333
-4.411770 74.434097 5.489819 0.000000 0.000000 0.000000 -7.679004 22.873250 7.788997 -20.079938 -12.969309 5.712716 43.725345 -0.593047 0.246123 -19.209583 -5.299828 -15.802150 0.000000 0.000000 0.000000 -7.679004 22.873250 7.788997 -16.784835 -28.446987 -25.252878 52.089943 0.082936 -0.323243 -32.852370 -4.403742 8.821678 0.000000 0.000000 0.000000 -7.679004 22.873250 7.788997 -0.000001 -0.000002 -0.000000 19.084066 1.210698 1.266150 5.234402 1.638211 -0.510233 0.000000 0.000000 0.000000 5.225525 1.690290 -0.516647 -17.295332 -9.726834 -7.669280 0.000000 0.000000 0.000000 5.225525 1.690290 -0.516647 -0.697443 -12.691481 -24.679611 -13.018055 -5.162531 -28.488915 51.978737 -46.839675 7.482879 0.000000 0.000000 0.000000 5.225525 1.690290 -0.516647 6.242223 -2.614790 -11.084390 -35.911369 -11.573015 -6.604742 -129.166090 14.300498 149.579340 0.000000 0.000000 0.000000 
-4.610592 74.534904 5.940647 0.000000 0.000000 0.000000 -7.911013 24.572674 7.728085 -19.737923 -14.751163 5.664349 43.130203 -0.605167 0.240164 -19.089426 -5.260668 -16.127757 0.000000 0.000000 0.000000 -7.911013 24.572674 7.728085 -15.603058 -30.312974 -24.759897 51.072186 0.089321 -0.307760 -33.009707 -4.793052 8.734878 0.000000 0.000000 0.000000 -7.911013 24.572674 7.728085 -0.000001 -0.000001 -0.000000 18.998654 1.107103 1.331177 5.096424 1.511987 -0.476951 0.000000 0.000000 0.000000 5.088409 1.550697 -0.475987 -18.172864 -7.374430 -11.412607 0.000000 0.000000 0.000000 5.088409 1.550697 -0.475987 -0.787869 -12.075484 -26.714950 -11.942301 -3.432189 -26.261545 55.390867 -49.285170 10.889091 0.000000 0.000000 0.000000 5.088409 1.550697 -0.475987 7.717156 -7.373789 -5.050553 -43.972153 -21.360505 -11.904046 -118.831303 10.484322 148.086479 0.000000 0.000000 0.000000 
-4.749532 74.661575 6.411424 0.000000 0.000000 0.000000 -8.058693 26.682931 8.023654 -19.584350 -16.785108 5.063597 42.262598 -0.615610 0.231422 -18.784830 -5.175221 -16.382157 0.000000 0.000000 0.000000 -8.058693 26.682931 8.023654 -14.693077 -32.352403 -24.743897 49.994287 0.109302 -0.292488 -33.150084 -5.307778 8.740976 0.000000 0.000000 0.000000 -8.058693 26.682931 8.023654 -0.000001 0.000000 0.000000 19.004119 0.708144 1.462581 5.119968 0.756772 -0.529777 0.000000 0.000000 0.000000 5.119970 0.792231 -0.531182 -18.019885 -6.128816 -11.431359 0.000000 0.000000 0.000000 5.119970 0.792231 -0.531182 -0.786546 -12.473181 -26.068151 -9.832095 0.874617 -25.954340 55.683746 -52.355763 13.970407 0.000000 0.000000 0.000000 5.119970 0.792231 -0.531182 8.148604 -9.861668 -1.653013 -54.292419 -30.007808 -14.466134 -110.199898 8.391190 146.424803 0.000000 0.000000 0.000000 
-4.875854 74.803391 6.799186 0.000000 0.000000 0.000000 -8.009311 28.559355 8.263153 -19.594793 -18.597172 4.484499 41.303534 -0.647228 0.221566 -18.380311 -5.025632 -16.591969 0.000000 0.000000 0.000000 -8.009311 28.559355 8.263153 -14.092692 -34.116348 -24.715132 48.965524 0.117683 -0.278862 -33.182558 -5.774624 8.728346 0.000000 0.000000 0.000000 -8.009311 28.559355 8.263153 0.000001 0.000000 0.000000 19.015195 0.172133 1.609340 5.137558 -0.395265 -0.742506 0.000000 0.000000 0.000000 5.145107 -0.355845 -0.748203 -17.870381 -5.140443 -11.214738 0.000000 0.000000 0.000000 5.145107 -0.355845 -0.748203 -0.729885 -12.936527 -24.594044 -7.448412 5.738898 -26.622710 53.665875 -55.184100 15.413787 0.000000 0.000000 0.000000 5.145107 -0.355845 -0.748203 8.112579 -11.609560 1.893598 -67.056161 -34.147592 -17.067555 -102.494249 5.567648 145.072385 0.000000 0.000000 0.000000 
-5.037674 74.944916 6.983171 0.000000 0.000000 0.000000 -7.753434 29.414920 8.307030 -19.567700 -19.548758 4.275944 40.354796 -0.620356 0.212857 -17.922136 -4.827787 -16.776656 0.000000 0.000000 0.000000 -7.753434 29.414920 8.307030 -13.946447 -34.932798 -24.552377 48.286097 0.134936 -0.269694 -33.097478 -6.017964 8.587796 0.000000 0.000000 0.000000 -7.753434 29.414920 8.307030 -0.000000 -0.000002 -0.000001 18.986898 -0.439424 1.702596 5.036265 -1.716515 -1.116739 0.000000 0.000000 0.000000 5.053166 -1.675394 -1.128118 -18.036434 -5.076343 -8.819524 0.000000 0.000000 0.000000 5.053166 -1.675394 -1.128118 -0.531979 -12.853698 -22.287723 -5.286654 9.327130 -28.815837 50.921434 -55.709147 15.466811 0.000000 0.000000 0.000000 5.053166 -1.675394 -1.128118 7.804870 -13.142016 8.638037 -80.663414 -32.852373 -18.382390 -94.425685 1.467780 144.065410 0.000000 0.000000 0.000000 
-5.171544 75.087791 7.017640 0.000000 0.000000 0.000000 -7.369166 29.658467 8.217799 -19.565862 -19.866579 4.271478 39.483227 -0.667399 0.204506 -17.444062 -4.609492 -16.855358 0.000000 0.000000 0.000000 -7.369166 29.658467 8.217799 -14.089370 -35.140777 -24.359771 47.818445 0.131611 -0.263911 -32.905966 -6.125301 8.426410 0.000000 0.000000 0.000000 -7.369166 29.658467 8.217799 0.000000 0.000000 0.000000 18.938354 -1.002174 1.730079 4.855966 -2.915592 -1.485520 0.000000 0.000000 0.000000 4.883687 -2.873584 -1.502392 -18.060810 -5.500303 -5.127130 0.000000 0.000000 0.000000 4.883687 -2.873584 -1.502392 -0.316021 -12.738293 -20.094179 -3.377279 12.102861 -31.052745 48.967877 -55.386953 15.024082 0.000000 0.000000 0.000000 4.883687 -2.873584 -1.502392 7.432619 -14.000968 15.289373 -88.040278 -27.657365 -16.830785 -88.510359 5.611646 143.384331 0.000000 0.000000 0.000000 
-5.211747 75.221901 6.931021 0.000000 0.000000 0.000000 -6.734381 28.676225 7.712944 -19.458644 -19.215306 4.785389 38.964931 -0.717172 0.199751 -17.209369 -4.227099 -16.797064 0.000000 0.000000 0.000000 -6.734381 28.676225 7.712944 -14.339016 -34.182064 -23.709987 47.558348 0.103303 -0.260732 -32.559539 -6.090832 8.241633 0.000000 0.000000 0.000000 -6.734381 28.676225 7.712944 0.000000 0.000000 0.000000 18.882780 -1.366259 1.652670 4.663848 -3.603356 -1.636672 0.000000 0.000000 0.000000 4.693069 -3.564249 -1.658751 -16.627775 -5.669632 -1.836847 0.000000 0.000000 0.000000 4.693069 -3.564249 -1.658751 -0.261496 -12.815579 -19.242268 -1.817633 14.026087 -32.013097 49.221543 -54.860650 15.084312 0.000000 0.000000 0.000000 4.693069 -3.564249 -1.658751 7.298773 -13.723328 19.822635 -89.384452 -22.421675 -15.795521 -87.717852 8.418904 143.601258 0.000000 0.000000 0.000000 
